<svg width="22" height="29" viewBox="0 0 22 29" fill="none" xmlns="http://www.w3.org/2000/svg">
<path id="ArrowVector" d="M1.90735e-06 1.45087V27.5516C0.000841141 27.8159 0.0746918 28.0749 0.213604 28.3008C0.352516 28.5267 0.551228 28.711 0.788351 28.8337C1.02548 28.9565 1.29203 29.0131 1.55933 28.9975C1.82663 28.9818 2.08454 28.8945 2.30531 28.745L21.406 15.6946C22.198 15.1538 22.198 13.8516 21.406 13.3093L2.30531 0.258939C2.085 0.107881 1.82696 0.019297 1.55922 0.00281152C1.29148 -0.0136739 1.02427 0.0425698 0.786648 0.165432C0.549021 0.288294 0.350054 0.473075 0.211369 0.6997C0.0726814 0.926324 -0.000419617 1.18612 1.90735e-06 1.45087Z" fill="#51B1FB"/>
</svg>
