<svg width="20" height="24" viewBox="0 0 20 24" fill="none" xmlns="http://www.w3.org/2000/svg">
<path id="Home Icon" d="M0 20.8714V9.04286C0 8.62666 0.0887498 8.23238 0.26625 7.86C0.44375 7.48762 0.688333 7.18095 1 6.94L8.5 1.02571C8.9375 0.675238 9.4375 0.5 10 0.5C10.5625 0.5 11.0625 0.675238 11.5 1.02571L19 6.94C19.3125 7.18095 19.5575 7.48762 19.735 7.86C19.9125 8.23238 20.0008 8.62666 20 9.04286V20.8714C20 21.5943 19.755 22.2133 19.265 22.7285C18.775 23.2437 18.1867 23.5009 17.5 23.5H13.75C13.3958 23.5 13.0992 23.3738 12.86 23.1215C12.6208 22.8691 12.5008 22.5572 12.5 22.1857V15.6143C12.5 15.2419 12.38 14.93 12.14 14.6785C11.9 14.427 11.6033 14.3009 11.25 14.3H8.75C8.39583 14.3 8.09917 14.4262 7.86 14.6785C7.62083 14.9309 7.50083 15.2428 7.5 15.6143V22.1857C7.5 22.5581 7.38 22.8705 7.14 23.1228C6.9 23.3751 6.60333 23.5009 6.25 23.5H2.5C1.8125 23.5 1.22417 23.2428 0.735 22.7285C0.245833 22.2142 0.000833333 21.5952 0 20.8714Z" fill="white"/>
</svg>
